HIERARCHY
ROOT hip
{
  OFFSET 0 0 0
  CHANNELS 6 Xposition Yposition Zposition Zrotation Yrotation Xrotation
  JOINT abdomen
  {
    OFFSET 0 20.6881 -0.73152
    CHANNELS 3 Zrotation Xrotation Yrotation
    JOINT chest
    {
      OFFSET 0 11.7043 -0.48768
      CHANNELS 3 Zrotation Xrotation Yrotation
      JOINT neck
      {
        OFFSET 0 22.1894 -2.19456
        CHANNELS 3 Zrotation Xrotation Yrotation
        JOINT head
        {
          OFFSET -0.24384 7.07133 1.2192
          CHANNELS 3 Zrotation Xrotation Yrotation
          JOINT leftEye
          {
            OFFSET 4.14528 8.04674 8.04672
            CHANNELS 3 Zrotation Xrotation Yrotation
            End Site
            {
              OFFSET 1 0 0
            }
          }
          JOINT rightEye
          {
            OFFSET -3.6576 8.04674 8.04672
            CHANNELS 3 Zrotation Xrotation Yrotation
            End Site
            {
              OFFSET 1 0 0
            }
          }
        }
      }
      JOINT rCollar
      {
        OFFSET -2.68224 19.2634 -4.8768
        CHANNELS 3 Zrotation Xrotation Yrotation
        JOINT rShldr
        {
          OFFSET -8.77824 -1.95073 1.46304
          CHANNELS 3 Zrotation Xrotation Yrotation
          JOINT rForeArm
          {
            OFFSET -28.1742 -1.7115 0.48768
            CHANNELS 3 Zrotation Xrotation Yrotation
            JOINT rHand
            {
              OFFSET -22.5879 0.773209 7.07136
              CHANNELS 3 Zrotation Xrotation Yrotation
              JOINT rThumb1
              {
                OFFSET -1.2192 -0.487915 3.41376
                CHANNELS 3 Zrotation Xrotation Yrotation
                JOINT rThumb2
                {
                  OFFSET -3.37035 -0.52449 3.41376
                  CHANNELS 3 Zrotation Xrotation Yrotation
                  End Site
                  {
                    OFFSET -1.78271 -1.18214 1.43049
                  }
                }
              }
              JOINT rIndex1
              {
                OFFSET -7.75947 0.938293 5.60832
                CHANNELS 3 Zrotation Xrotation Yrotation
                JOINT rIndex2
                {
                  OFFSET -2.54057 -0.884171 1.56538
                  CHANNELS 3 Zrotation Xrotation Yrotation
                  End Site
                  {
                    OFFSET -1.62519 -0.234802 1.16502
                  }
                }
              }
              JOINT rMid1
              {
                OFFSET -8.24714 1.18213 3.41376
                CHANNELS 3 Zrotation Xrotation Yrotation
                JOINT rMid2
                {
                  OFFSET -3.10165 -0.590103 1.0647
                  CHANNELS 3 Zrotation Xrotation Yrotation
                  End Site
                  {
                    OFFSET -2.48547 -0.328903 0.83742
                  }
                }
              }
              JOINT rRing1
              {
                OFFSET -8.82822 0.546677 1.51678
                CHANNELS 3 Zrotation Xrotation Yrotation
                JOINT rRing2
                {
                  OFFSET -2.60934 -0.819778 -0.0198488
                  CHANNELS 3 Zrotation Xrotation Yrotation
                  End Site
                  {
                    OFFSET -2.33842 -0.294052 0.168128
                  }
                }
              }
              JOINT rPinky1
              {
                OFFSET -8.27202 -0.0477905 -0.4584
                CHANNELS 3 Zrotation Xrotation Yrotation
                JOINT rPinky2
                {
                  OFFSET -1.82734 -0.647385 -0.700984
                  CHANNELS 3 Zrotation Xrotation Yrotation
                  End Site
                  {
                    OFFSET -1.69225 -0.51767 -0.607171
                  }
                }
              }
            }
          }
        }
      }
      JOINT lCollar
      {
        OFFSET 2.68224 19.2634 -4.8768
        CHANNELS 3 Zrotation Xrotation Yrotation
        JOINT lShldr
        {
          OFFSET 8.77824 -1.95073 1.46304
          CHANNELS 3 Zrotation Xrotation Yrotation
          JOINT lForeArm
          {
            OFFSET 28.1742 -1.7115 0.48768
            CHANNELS 3 Zrotation Xrotation Yrotation
            JOINT lHand
            {
              OFFSET 22.5879 0.773209 7.07136
              CHANNELS 3 Zrotation Xrotation Yrotation
              JOINT lThumb1
              {
                OFFSET 1.2192 -0.487915 3.41376
                CHANNELS 3 Zrotation Xrotation Yrotation
                JOINT lThumb2
                {
                  OFFSET 3.37035 -0.52449 3.41376
                  CHANNELS 3 Zrotation Xrotation Yrotation
                  End Site
                  {
                    OFFSET 1.78271 -1.18214 1.43049
                  }
                }
              }
              JOINT lIndex1
              {
                OFFSET 7.75947 0.938293 5.60832
                CHANNELS 3 Zrotation Xrotation Yrotation
                JOINT lIndex2
                {
                  OFFSET 2.54057 -0.884171 1.56538
                  CHANNELS 3 Zrotation Xrotation Yrotation
                  End Site
                  {
                    OFFSET 1.62519 -0.234802 1.16502
                  }
                }
              }
              JOINT lMid1
              {
                OFFSET 8.24714 1.18213 3.41376
                CHANNELS 3 Zrotation Xrotation Yrotation
                JOINT lMid2
                {
                  OFFSET 3.10165 -0.590103 1.0647
                  CHANNELS 3 Zrotation Xrotation Yrotation
                  End Site
                  {
                    OFFSET 2.48547 -0.328903 0.83742
                  }
                }
              }
              JOINT lRing1
              {
                OFFSET 8.82822 0.546677 1.51678
                CHANNELS 3 Zrotation Xrotation Yrotation
                JOINT lRing2
                {
                  OFFSET 2.60934 -0.819778 -0.0198488
                  CHANNELS 3 Zrotation Xrotation Yrotation
                  End Site
                  {
                    OFFSET 2.33842 -0.294052 0.168128
                  }
                }
              }
              JOINT lPinky1
              {
                OFFSET 8.27202 -0.0477905 -0.4584
                CHANNELS 3 Zrotation Xrotation Yrotation
                JOINT lPinky2
                {
                  OFFSET 1.82734 -0.647385 -0.700984
                  CHANNELS 3 Zrotation Xrotation Yrotation
                  End Site
                  {
                    OFFSET 1.69225 -0.51767 -0.607171
                  }
                }
              }
            }
          }
        }
      }
    }
  }
  JOINT rButtock
  {
    OFFSET -8.77824 4.35084 1.2192
    CHANNELS 3 Zrotation Xrotation Yrotation
    JOINT rThigh
    {
      OFFSET 0 -1.70687 -2.19456
      CHANNELS 3 Zrotation Xrotation Yrotation
      JOINT rShin
      {
        OFFSET 0 -36.8199 0.73152
        CHANNELS 3 Zrotation Xrotation Yrotation
        JOINT rFoot
        {
          OFFSET 0.73152 -45.1104 -5.12064
          CHANNELS 3 Zrotation Xrotation Yrotation
          End Site
          {
            OFFSET -1.1221 -3.69964 12.103
          }
        }
      }
    }
  }
  JOINT lButtock
  {
    OFFSET 8.77824 4.35084 1.2192
    CHANNELS 3 Zrotation Xrotation Yrotation
    JOINT lThigh
    {
      OFFSET 0 -1.70687 -2.19456
      CHANNELS 3 Zrotation Xrotation Yrotation
      JOINT lShin
      {
        OFFSET 0 -36.8199 0.73152
        CHANNELS 3 Zrotation Xrotation Yrotation
        JOINT lFoot
        {
          OFFSET -0.73152 -45.1104 -5.12064
          CHANNELS 3 Zrotation Xrotation Yrotation
          End Site
          {
            OFFSET 1.1221 -3.69964 12.103
          }
        }
      }
    }
  }
}
MOTION
Frames:	8
Frame Time:	0.00833333
-46.7205 80.2542 29.1767 -38.3018 83.1753 -20.7573 0.807749 16.6481 2.53386 4.69781 4.50152 0.929549 3.20267 4.22883 0.327191 -13.0637 26.4579 6.69927 -0.0 0.0 0.0 -0.0 0.0 0.0 -6.12049e-14 -3.06334e-12 2.00425e-13 28.9224 58.2665 54.4267 -24.6694 -20.4038 51.8022 -7.01762 -57.5131 -12.7511 -1.95922e-12 8.3616e-11 1.10887e-10 -1.19144e-11 1.14156e-10 1.89938e-10 -1.96002e-12 8.36235e-11 1.10877e-10 7.73091 5.47488 0.417314 -1.96235e-12 8.36223e-11 1.1088e-10 2.90554 0.965183 0.102902 -1.94695e-12 8.3623e-11 1.10885e-10 10.2786 0.731801 0.0259123 -1.9628e-12 8.36231e-11 1.1089e-10 2.22167 -0.733487 -0.20892 -6.12007e-14 -3.06336e-12 2.00276e-13 -20.3804 62.4722 -70.8872 25.379 -21.9345 -54.3271 11.221 -64.992 17.5345 1.34258e-10 -1.81354e-10 1.01905e-11 2.22173e-10 -2.39512e-10 2.7674e-11 1.34255e-10 -1.81346e-10 1.02e-11 -7.73091 5.47488 -0.417314 1.34258e-10 -1.81355e-10 1.01937e-11 -2.90554 0.965183 -0.102902 1.34254e-10 -1.81345e-10 1.01897e-11 -10.2786 0.731801 -0.0259123 1.34262e-10 -1.8134e-10 1.01841e-11 -2.22167 -0.733487 0.20892 -2.03217e-16 0.0 -3.88251e-19 -4.44835 -42.5358 -4.82564 -0.241802 32.5814 0.464033 -0.332792 -2.90629 -0.560884 2.03217e-16 0.0 3.88251e-19 12.8297 -42.568 10.5316 0.178937 35.7255 -0.751014 -1.13182 -7.46064 -6.97201
-46.7039 80.2625 29.1654 -38.1035 83.1732 -20.6425 0.823405 16.6646 2.54393 4.70128 4.50938 0.933085 3.16954 4.21474 0.337774 -13.0196 26.4689 6.71342 -0.0 0.0 0.0 -0.0 0.0 0.0 -1.92817e-14 -1.81119e-12 1.19986e-13 28.953 58.2362 54.3533 -24.6766 -20.4187 51.8269 -7.02548 -57.5317 -12.7604 -7.59361e-10 1.97836e-10 3.61117e-10 -1.32437e-09 2.49275e-10 5.86308e-10 -7.59361e-10 1.97842e-10 3.61107e-10 7.73091 5.47488 0.417314 -7.59364e-10 1.9784e-10 3.61111e-10 2.90554 0.965183 0.102902 -7.59349e-10 1.97842e-10 3.61116e-10 10.2786 0.731801 0.0259123 -7.59364e-10 1.97843e-10 3.61119e-10 2.22167 -0.733487 -0.20892 -1.92802e-14 -1.81121e-12 1.19805e-13 -20.3031 62.4505 -71.0019 25.3799 -21.9365 -54.3303 11.2149 -64.9837 17.5278 1.1147e-09 3.44046e-12 -8.61188e-11 1.91383e-09 -9.05084e-11 -8.99656e-11 1.1147e-09 3.4463e-12 -8.61098e-11 -7.73091 5.47488 -0.417314 1.1147e-09 3.43793e-12 -8.61167e-11 -2.90554 0.965183 -0.102902 1.11469e-09 3.44771e-12 -8.61205e-11 -10.2786 0.731801 -0.0259123 1.1147e-09 3.45185e-12 -8.61266e-11 -2.22167 -0.733487 0.20892 -2.03217e-16 0.0 -3.88251e-19 -4.39744 -42.487 -4.82136 -0.240962 32.5133 0.462398 -0.324388 -2.87545 -0.50035 2.03217e-16 0.0 3.88251e-19 12.8731 -42.5227 10.5629 0.178745 35.7101 -0.750882 -1.12721 -7.49968 -6.9059
-46.6972 80.2696 29.1552 -37.9987 83.1574 -20.5783 0.849269 16.6922 2.54628 4.70601 4.52076 0.935092 3.13546 4.18938 0.346589 -12.9921 26.4876 6.72838 -0.0 0.0 0.0 -0.0 0.0 0.0 3.65739e-14 -1.60725e-13 1.4912e-14 28.9377 58.1992 54.2976 -24.6872 -20.4404 51.863 -7.03722 -57.5595 -12.7743 -2.04951e-09 1.57409e-10 5.7035e-10 -3.55003e-09 7.148e-11 8.88069e-10 -2.04951e-09 1.57413e-10 5.7034e-10 7.73091 5.47488 0.417314 -2.04951e-09 1.57407e-10 5.70346e-10 2.90554 0.965183 0.102902 -2.0495e-09 1.57414e-10 5.7035e-10 10.2786 0.731801 0.0259123 -2.04951e-09 1.57416e-10 5.70353e-10 2.22167 -0.733487 -0.20892 3.65783e-14 -1.60741e-13 1.4679e-14 -20.2792 62.4222 -71.0873 25.38 -21.9367 -54.3306 11.1801 -64.9371 17.4894 2.51853e-09 4.59128e-10 -3.35714e-10 4.34195e-09 4.45736e-10 -4.50411e-10 2.51853e-09 4.59129e-10 -3.35707e-10 -7.73091 5.47488 -0.417314 2.51853e-09 4.59123e-10 -3.35714e-10 -2.90554 0.965183 -0.102902 2.51853e-09 4.59131e-10 -3.35718e-10 -10.2786 0.731801 -0.0259123 2.51853e-09 4.59134e-10 -3.35725e-10 -2.22167 -0.733487 0.20892 -2.03217e-16 0.0 -3.88251e-19 -4.3249 -42.4217 -4.77344 -0.240017 32.4368 0.460554 -0.320567 -2.84744 -0.471192 2.03217e-16 0.0 3.88251e-19 12.9111 -42.4612 10.5766 0.178407 35.6783 -0.750313 -1.12274 -7.53382 -6.83526
-46.7041 80.2755 29.1572 -38.0244 83.079 -20.582 0.860952 16.7193 2.53648 4.71719 4.53195 0.932703 3.10627 4.16877 0.359459 -12.9905 26.5043 6.75668 -0.0 0.0 0.0 -0.0 0.0 0.0 9.06393e-14 1.35957e-12 -8.24603e-14 28.8848 58.1697 54.271 -24.6974 -20.4612 51.8977 -7.04868 -57.5866 -12.7879 -3.32538e-09 7.7385e-11 7.40943e-10 -5.74935e-09 -1.73691e-10 1.12397e-09 -3.32537e-09 7.73864e-11 7.40933e-10 7.73091 5.47488 0.417314 -3.32538e-09 7.73765e-11 7.40941e-10 2.90554 0.965183 0.102902 -3.32537e-09 7.73882e-11 7.40943e-10 10.2786 0.731801 0.0259123 -3.32538e-09 7.73917e-11 7.40947e-10 2.22167 -0.733487 -0.20892 9.06502e-14 1.35956e-12 -8.2741e-14 -20.2965 62.3943 -71.133 25.38 -21.9364 -54.3302 11.1416 -64.8853 17.4469 3.86532e-09 9.28478e-10 -5.93349e-10 6.67235e-09 1.01403e-09 -8.27458e-10 3.86531e-09 9.28475e-10 -5.93342e-10 -7.73091 5.47488 -0.417314 3.86531e-09 9.28472e-10 -5.93351e-10 -2.90554 0.965183 -0.102902 3.86531e-09 9.28477e-10 -5.93353e-10 -10.2786 0.731801 -0.0259123 3.86532e-09 9.28479e-10 -5.93362e-10 -2.22167 -0.733487 0.20892 -2.03217e-16 0.0 -3.88251e-19 -4.26168 -42.3557 -4.71366 -0.23907 32.3607 0.458774 -0.31798 -2.82033 -0.450786 2.03217e-16 0.0 3.88251e-19 12.9312 -42.3952 10.577 0.177975 35.6394 -0.749601 -1.1168 -7.55749 -6.76653
-46.7074 80.2815 29.1726 -38.1481 82.9426 -20.6963 0.834072 16.7339 2.51009 4.74003 4.53925 0.923051 3.08781 4.16891 0.382211 -13.0242 26.5097 6.81084 -0.0 0.0 0.0 -0.0 0.0 0.0 1.27192e-13 2.2212e-12 -1.39795e-13 28.8028 58.1619 54.2852 -24.7034 -20.4735 51.9183 -7.05566 -57.6031 -12.7962 -4.03992e-09 7.2814e-11 8.7525e-10 -6.98275e-09 -2.40701e-10 1.32277e-09 -4.03992e-09 7.28148e-11 8.75241e-10 7.73091 5.47488 0.417314 -4.03992e-09 7.28023e-11 8.7525e-10 2.90554 0.965183 0.102902 -4.03991e-09 7.2816e-11 8.75252e-10 10.2786 0.731801 0.0259123 -4.03992e-09 7.282e-11 8.75257e-10 2.22167 -0.733487 -0.20892 1.27211e-13 2.22119e-12 -1.40093e-13 -20.3427 62.3738 -71.1292 25.3803 -21.9372 -54.3314 11.124 -64.8615 17.4275 4.6746e-09 1.15426e-09 -7.13774e-10 8.07083e-09 1.2592e-09 -9.94903e-10 4.6746e-09 1.15426e-09 -7.13767e-10 -7.73091 5.47488 -0.417314 4.6746e-09 1.15426e-09 -7.13777e-10 -2.90554 0.965183 -0.102902 4.6746e-09 1.15426e-09 -7.13778e-10 -10.2786 0.731801 -0.0259123 4.6746e-09 1.15426e-09 -7.13786e-10 -2.22167 -0.733487 0.20892 -2.03217e-16 0.0 -3.88251e-19 -4.23847 -42.3051 -4.67364 -0.238221 32.2938 0.457329 -0.313326 -2.79215 -0.416514 2.03217e-16 0.0 3.88251e-19 12.9208 -42.3367 10.5684 0.177498 35.6028 -0.74904 -1.1078 -7.56518 -6.70617
-46.7023 80.2887 29.168 -38.1033 82.8741 -20.6813 0.739277 16.7297 2.45745 4.78331 4.54053 0.901533 3.08476 4.20092 0.421066 -13.1116 26.499 6.90701 -0.0 0.0 0.0 -0.0 0.0 0.0 1.43408e-13 2.02857e-12 -1.34305e-13 28.6596 58.1909 54.3709 -24.7038 -20.4744 51.9197 -7.05631 -57.6046 -12.7969 -3.9403e-09 2.14604e-10 9.93248e-10 -6.81687e-09 1.3963e-11 1.53019e-09 -3.94029e-09 2.14608e-10 9.93239e-10 7.73091 5.47488 0.417314 -3.9403e-09 2.14594e-10 9.93249e-10 2.90554 0.965183 0.102902 -3.94029e-09 2.14606e-10 9.93251e-10 10.2786 0.731801 0.0259123 -3.9403e-09 2.14609e-10 9.93257e-10 2.22167 -0.733487 -0.20892 1.43438e-13 2.02856e-12 -1.34574e-13 -20.4411 62.3632 -71.0403 25.3818 -21.9406 -54.337 11.1394 -64.8824 17.4445 4.7474e-09 9.97296e-10 -6.1965e-10 8.1907e-09 9.80628e-10 -8.29474e-10 4.7474e-09 9.97293e-10 -6.19642e-10 -7.73091 5.47488 -0.417314 4.7474e-09 9.97292e-10 -6.19654e-10 -2.90554 0.965183 -0.102902 4.74739e-09 9.97291e-10 -6.19651e-10 -10.2786 0.731801 -0.0259123 4.7474e-09 9.97293e-10 -6.19657e-10 -2.22167 -0.733487 0.20892 -2.03217e-16 0.0 -3.88251e-19 -4.29146 -42.2798 -4.68092 -0.237565 32.2446 0.456478 -0.303938 -2.76368 -0.349983 2.03217e-16 0.0 3.88251e-19 12.8526 -42.2862 10.5342 0.176846 35.5628 -0.748578 -1.09438 -7.5371 -6.66674
-46.6985 80.2984 29.1247 -37.0813 82.9113 -19.6778 0.597151 16.7142 2.38376 4.84177 4.53813 0.870956 3.09288 4.25398 0.471367 -13.2424 26.4778 7.03421 -0.0 0.0 0.0 -0.0 0.0 0.0 1.47218e-13 1.14843e-12 -8.7956e-14 28.4619 58.2451 54.5131 -24.7008 -20.4681 51.9093 -7.0531 -57.597 -12.7931 -3.35392e-09 4.27986e-10 1.08723e-09 -5.81374e-09 4.33336e-10 1.7182e-09 -3.35391e-09 4.27994e-10 1.08722e-09 7.73091 5.47488 0.417314 -3.35392e-09 4.2798e-10 1.08723e-09 2.90554 0.965183 0.102902 -3.35392e-09 4.27988e-10 1.08723e-09 10.2786 0.731801 0.0259123 -3.35392e-09 4.27989e-10 1.08724e-09 2.22167 -0.733487 -0.20892 1.47261e-13 1.14843e-12 -8.81672e-14 -20.5893 62.3583 -70.8828 25.3839 -21.9454 -54.345 11.1729 -64.9275 17.4815 4.36357e-09 6.18298e-10 -4.01312e-10 7.51826e-09 4.03054e-10 -4.72797e-10 4.36357e-09 6.18301e-10 -4.01302e-10 -7.73091 5.47488 -0.417314 4.36357e-09 6.18298e-10 -4.01315e-10 -2.90554 0.965183 -0.102902 4.36356e-09 6.18294e-10 -4.01308e-10 -10.2786 0.731801 -0.0259123 4.36357e-09 6.18296e-10 -4.01311e-10 -2.22167 -0.733487 0.20892 -2.03217e-16 0.0 -3.88251e-19 -4.39483 -42.2695 -4.71221 -0.237022 32.2065 0.456012 -0.292208 -2.73552 -0.267378 2.03217e-16 0.0 3.88251e-19 12.7413 -42.2383 10.478 0.176039 35.5173 -0.748101 -1.07778 -7.4823 -6.64121
-46.7004 80.3104 29.077 -35.4632 82.9094 -18.0442 0.458224 16.6959 2.30689 4.89961 4.5351 0.839574 3.1047 4.31117 0.522622 -13.3825 26.4525 7.16426 -0.0 0.0 0.0 -0.0 0.0 0.0 1.39025e-13 1.95797e-13 -3.55475e-14 28.2763 58.299 54.6541 -24.6959 -20.4582 51.8928 -7.04828 -57.5857 -12.7874 -2.60414e-09 6.09493e-10 1.11803e-09 -4.52694e-09 8.12238e-10 1.80495e-09 -2.60413e-09 6.09506e-10 1.11803e-09 7.73091 5.47488 0.417314 -2.60414e-09 6.09492e-10 1.11804e-09 2.90554 0.965183 0.102902 -2.60413e-09 6.09495e-10 1.11804e-09 10.2786 0.731801 0.0259123 -2.60414e-09 6.09494e-10 1.11805e-09 2.22167 -0.733487 -0.20892 1.39084e-13 1.95794e-13 -3.56943e-14 -20.7364 62.3566 -70.7244 25.3854 -21.9489 -54.3507 11.2083 -64.975 17.5205 3.76096e-09 2.09893e-10 -1.65022e-10 6.46887e-09 -1.90727e-10 -9.60151e-11 3.76095e-09 2.09902e-10 -1.65011e-10 -7.73091 5.47488 -0.417314 3.76096e-09 2.09898e-10 -1.65026e-10 -2.90554 0.965183 -0.102902 3.76095e-09 2.09891e-10 -1.65014e-10 -10.2786 0.731801 -0.0259123 3.76096e-09 2.09893e-10 -1.65013e-10 -2.22167 -0.733487 0.20892 -2.03217e-16 0.0 -3.88251e-19 -4.48623 -42.2596 -4.72277 -0.236431 32.165 0.4555 -0.282424 -2.70551 -0.197947 2.03217e-16 0.0 3.88251e-19 12.6375 -42.1955 10.4347 0.175357 35.4804 -0.747813 -1.0603 -7.43848 -6.60657
